# xmcd
# 
# Track frame offsets:
#     150
#     11047
#     26338
#     36408
#     50519
#     65541
#     81804
#     95133
#     110475
#     124592
#     135083
#     145514
#     158210
#     170680
# 
# Disc length: 2503
# 
# Revision: 0
# Processed by: cddbd v1.5.2PL0 Copyright (c) Steve Scherf et al.
# Submitted via: fre:ac v1.0.31
# 
DISCID=b609c50e
DTITLE=Various Artist - Románticos por siempre
DYEAR=0
DGENRE=Pop
TTITLE0=Los Teen Toops - Anoche no dormí
TTITLE1=Los Pockers - En el parque
TTITLE2=Los Hooligans - Agujetas de color de rosa
TTITLE3=Los Prados - Como no voy a quererte
TTITLE4=Los Johnny Jets - Es lupe
TTITLE5=Kantares - Jenny se ha ido
TTITLE6=Industria Nacional - La tarde que te amé
TTITLE7=Los hermanos Carrión - Magia Blanca
TTITLE8=Los Rufos - 9.500 millas
TTITLE9=Los cinco latinos - Quiéreme siempre
TTITLE10=Los Soñadores - Vida
TTITLE11=Los Náufragos - Zapatos rotos
TTITLE12=Los Gatos - Enamorado
TTITLE13=Manantial - Recuerdos de Verano
EXTD=
EXTT0=
EXTT1=
EXTT2=
EXTT3=
EXTT4=
EXTT5=
EXTT6=
EXTT7=
EXTT8=
EXTT9=
EXTT10=
EXTT11=
EXTT12=
EXTT13=
PLAYORDER=
